<?xml version="1.0" encoding="UTF-8" standalone="no"?><!DOCTYPE svg PUBLIC "-//W3C//DTD SVG 1.1//EN" "http://www.w3.org/Graphics/SVG/1.1/DTD/svg11.dtd"><svg width="100%" height="100%" viewBox="0 0 524 478" version="1.1" xmlns="http://www.w3.org/2000/svg" xmlns:xlink="http://www.w3.org/1999/xlink" xml:space="preserve" xmlns:serif="http://www.serif.com/" style="fill-rule:evenodd;clip-rule:evenodd;stroke-linejoin:round;"><rect id="Artboard1" x="0" y="0" width="523.872" height="477.08" style="fill:none;"/><clipPath id="_clip1"><rect x="0" y="0" width="523.872" height="477.08"/></clipPath><g clip-path="url(#_clip1)"><path d="M27.314,0.57c-3.96,0.27 -7.738,1.315 -11.25,3.118c-1.168,0.6 -3.1,1.822 -4.29,2.717c-1.19,0.895 -2.863,2.387 -3.712,3.317c-0.85,0.928 -2.155,2.6 -2.898,3.715c-0.743,1.115 -1.79,2.973 -2.327,4.125c-0.537,1.152 -1.265,3.277 -1.618,4.723c-0.352,1.445 -0.757,3.79 -0.898,5.215c-0.173,1.745 -0.257,70.688 -0.257,211.76c0,185.933 0.042,209.503 0.38,212.16c0.21,1.645 0.662,3.987 1.005,5.207c0.343,1.22 1.24,3.415 1.99,4.875c0.752,1.46 1.928,3.398 2.613,4.308c0.685,0.908 2.3,2.658 3.587,3.89c2.355,2.25 4.777,3.87 7.925,5.295c2.452,1.11 5.615,1.995 8.123,2.275c1.478,0.163 82.685,0.255 236.5,0.268c207.303,0.015 234.528,-0.025 236.665,-0.357c1.33,-0.207 3.607,-0.763 5.062,-1.235c1.455,-0.472 3.725,-1.455 5.045,-2.185c1.317,-0.73 3.202,-2.018 4.188,-2.857c2.235,-1.913 4.378,-4.22 5.633,-6.07c1.48,-2.18 2.895,-5.165 3.758,-7.92c0.43,-1.372 0.92,-3.51 1.09,-4.747c0.245,-1.78 0.31,-46.59 0.31,-213.252c0,-197.298 -0.028,-211.162 -0.425,-213.517c-0.467,-2.772 -1.69,-6.845 -2.587,-8.627c-1.082,-2.142 -3.625,-5.705 -5.31,-7.433c-0.923,-0.947 -2.582,-2.39 -3.688,-3.205c-1.105,-0.815 -2.905,-1.945 -4,-2.512c-1.095,-0.565 -3.067,-1.373 -4.385,-1.79c-1.315,-0.418 -3.34,-0.882 -4.5,-1.03c-1.492,-0.19 -70.352,-0.288 -235.732,-0.327c-128.495,-0.033 -234.695,0.015 -236,0.103l0.005,-0.003Zm457.25,15.82c1.305,0.2 3.388,0.717 4.625,1.15c1.237,0.433 3.163,1.22 4.275,1.755c1.115,0.533 2.915,1.562 4,2.288c1.085,0.725 3.112,2.445 4.503,3.822c1.39,1.377 3.035,3.293 3.655,4.255c1.622,2.517 3.112,5.595 3.942,8.135c0.398,1.215 0.895,3.382 1.11,4.817c0.347,2.342 0.388,22.655 0.383,196.952c-0.003,104.403 0.015,153.545 -0.128,177.217c-0.143,23.673 -0.445,21.872 -1.087,24.388c-0.58,2.268 -1.712,5.135 -2.768,7.005c-1.362,2.415 -3.133,4.742 -5.058,6.658c-1.065,1.058 -2.755,2.477 -3.758,3.153c-1.003,0.678 -2.61,1.625 -3.572,2.11c-2.12,1.067 -5.625,2.332 -8,2.888c-1.612,0.378 -19.102,0.415 -221.715,0.482c-194.048,0.065 -220.26,0.028 -222.462,-0.3c-1.373,-0.205 -3.527,-0.722 -4.785,-1.15c-4.142,-1.408 -7.853,-3.505 -11.095,-6.275c-1.748,-1.49 -3.618,-3.61 -5.118,-5.795c-1.495,-2.178 -3.66,-6.855 -4.08,-8.812c-0.325,-1.51 -0.368,-26.197 -0.363,-201.097c0.005,-168.22 0.06,-199.63 0.35,-201.005c0.19,-0.897 0.69,-2.527 1.115,-3.625c0.423,-1.098 1.295,-2.895 1.933,-3.995c0.64,-1.1 1.785,-2.767 2.545,-3.702c0.76,-0.938 2.1,-2.36 2.975,-3.163c0.875,-0.803 2.418,-2.03 3.425,-2.725c2.16,-1.493 5.668,-3.295 7.775,-3.995c0.825,-0.275 2.345,-0.695 3.375,-0.938c1.64,-0.382 3.808,-0.457 17.25,-0.582c8.457,-0.08 107.4,-0.175 219.875,-0.212c178.112,-0.058 204.808,-0.02 206.875,0.298l0.003,-0Zm-440.5,15.895c-0.48,0.262 -1.168,0.485 -1.527,0.49c-0.358,0.005 -1.145,0.387 -1.75,0.848c-0.605,0.46 -1.435,1.012 -1.848,1.225c-1.272,0.655 -3.522,3.245 -4.49,5.168c-0.505,1.002 -1.248,2.757 -1.652,3.902l-0.735,2.08l0,238.95l0.627,2.107c0.345,1.158 1.077,3.05 1.63,4.202c0.765,1.6 1.457,2.565 2.935,4.087c1.223,1.26 2.457,2.258 3.363,2.717c0.788,0.4 1.745,0.725 2.132,0.725c0.385,0 0.945,0.17 1.243,0.38c0.48,0.335 5.59,0.378 44.308,0.372l43.765,-0.005l1.938,-0.645c1.065,-0.355 2.473,-0.935 3.127,-1.29c0.655,-0.355 2.175,-1.665 3.375,-2.915l2.185,-2.27l2.25,-7l0,-239.5l-0.745,-2.25c-0.512,-1.55 -1.257,-3.027 -2.395,-4.755c-0.908,-1.377 -2.012,-2.81 -2.455,-3.183c-1.168,-0.983 -4.582,-2.598 -7.012,-3.315l-2.108,-0.623l-42.642,0.01c-41.54,0.01 -42.665,0.022 -43.517,0.49l-0,-0.005Zm138,0.002c-0.618,0.118 -1.913,0.33 -2.875,0.473c-1.142,0.168 -2.445,0.603 -3.75,1.252c-1.41,0.7 -2.455,1.46 -3.543,2.57c-0.848,0.868 -1.947,2.32 -2.442,3.23c-0.495,0.91 -1.235,2.647 -1.645,3.86l-0.745,2.205l0,89.32l0.623,2.108c0.342,1.158 1.067,3.007 1.61,4.108c0.7,1.42 1.445,2.447 2.565,3.543c1.683,1.645 4.113,3.108 5.952,3.58c0.618,0.16 1.743,0.455 2.5,0.655c1.202,0.32 20.25,0.355 151.375,0.285c142.977,-0.077 150.067,-0.103 151.45,-0.527c1.872,-0.575 5.673,-2.74 7.185,-4.095c1.325,-1.188 2.775,-3.767 3.905,-6.94l0.712,-2l-0.01,-89.5l-0.59,-1.75c-0.325,-0.962 -1.048,-2.65 -1.605,-3.75c-0.742,-1.462 -1.525,-2.505 -2.908,-3.875c-1.81,-1.795 -3.59,-2.952 -6.058,-3.942c-1.02,-0.41 -9.487,-0.442 -149.707,-0.587c-81.743,-0.085 -149.132,-0.217 -149.75,-0.293c-0.618,-0.077 -1.632,-0.043 -2.25,0.075l0,-0.003Zm0.125,139.748c-0.962,0.098 -2.48,0.37 -3.375,0.61c-0.895,0.238 -2.525,0.897 -3.625,1.462c-2.505,1.288 -4.658,3.402 -5.915,5.805c-0.502,0.962 -1.207,2.705 -1.57,3.873l-0.655,2.125l0.14,100.5l0.67,1.805c0.368,0.992 1.085,2.595 1.592,3.56c0.613,1.165 1.48,2.28 2.58,3.32c0.913,0.86 2.46,1.985 3.44,2.5c0.98,0.515 2.498,1.16 3.373,1.435c1.585,0.497 2.335,0.5 152.095,0.5l150.5,0l1.952,-0.607c1.075,-0.332 2.705,-1.015 3.625,-1.518c0.92,-0.5 2.37,-1.595 3.222,-2.435c0.852,-0.837 1.903,-2.183 2.33,-2.985c0.428,-0.805 1.135,-2.442 1.567,-3.643l0.788,-2.183l0.072,-42.25c0.04,-23.238 -0.02,-46.243 -0.13,-51.125l-0.202,-8.875l-1.308,-2.685c-0.942,-1.94 -1.722,-3.132 -2.81,-4.293c-1.12,-1.197 -2.058,-1.892 -3.68,-2.725c-1.197,-0.615 -3.112,-1.413 -4.253,-1.77l-2.075,-0.65l-148.3,0.038c-81.565,0.02 -149.087,0.115 -150.05,0.212l0,-0.002Zm-136.375,150.115c-2.252,0.663 -5.07,1.87 -6.798,2.915c-1.048,0.633 -2.163,1.567 -2.738,2.293c-1.303,1.648 -2.543,3.91 -3.392,6.18l-0.7,1.872l-0.065,48.875c-0.062,48.35 -0.058,48.89 0.438,50.36c0.275,0.817 0.502,1.74 0.502,2.053c0,0.312 0.243,1.215 0.538,2.008c0.433,1.158 1.03,1.945 3.04,4.01c1.767,1.817 2.91,2.77 3.9,3.247c0.77,0.372 1.748,0.88 2.173,1.128c0.745,0.433 6.825,0.45 151.748,0.445l150.973,-0.005l3.253,-1.645c3.442,-1.74 4.505,-2.628 6.05,-5.05c0.438,-0.688 1.112,-2.133 1.5,-3.212l0.702,-1.965l0,-102.04l-1.092,-2.207c-0.832,-1.678 -1.58,-2.712 -3.125,-4.325c-1.117,-1.165 -2.53,-2.46 -3.14,-2.88c-0.61,-0.42 -2.235,-1.138 -3.612,-1.595l-2.503,-0.832l-148.262,0.018c-122.233,0.015 -148.46,0.075 -149.387,0.347l-0,0.007Zm346.875,-0.062c-0.413,0.145 -0.862,0.352 -1,0.46c-0.138,0.107 -0.995,0.475 -1.905,0.817c-0.91,0.342 -2.148,0.928 -2.75,1.3c-1.597,0.987 -3.87,3.285 -4.87,4.923c-0.48,0.785 -1.15,2.222 -1.487,3.192l-0.617,1.768l0.13,100.865l0.655,1.685c0.36,0.928 1.035,2.322 1.5,3.1c0.465,0.778 1.355,1.942 1.98,2.59c0.625,0.648 1.75,1.582 2.5,2.08c0.75,0.497 2.355,1.3 3.567,1.788l2.202,0.885l88.71,0l1.942,-0.65c1.067,-0.357 2.533,-0.938 3.255,-1.29c0.722,-0.352 1.96,-1.158 2.75,-1.79c0.822,-0.658 1.972,-1.95 2.69,-3.023c0.765,-1.143 1.592,-2.847 2.125,-4.372l0.872,-2.5l0,-98.25l-0.592,-1.75c-1.038,-3.058 -2.255,-5.12 -4.148,-7.013c-1.817,-1.82 -3.087,-2.575 -7.01,-4.173l-2,-0.815l-43.875,-0.045c-30.403,-0.03 -44.105,0.038 -44.625,0.22l-0,-0.003Z" style="fill:#fefefe;stroke:#fefefe;stroke-width:0.2px;"/></g></svg>